<?xml version="1.0" encoding="UTF-8"?>
<svg id="_レイヤー_2" data-name="レイヤー 2" xmlns="http://www.w3.org/2000/svg" xmlns:xlink="http://www.w3.org/1999/xlink" viewBox="0 0 150 150">
  <defs>
    <style>
      .cls-1, .cls-2 {
        fill: none;
      }

      .cls-3 {
        clip-path: url(#clippath);
      }

      .cls-4 {
        fill: #999;
      }

      .cls-5 {
        fill: #666;
      }

      .cls-2 {
        clip-rule: evenodd;
      }

      .cls-6 {
        fill: #be88ef;
        fill-rule: evenodd;
        stroke: #be88ef;
        stroke-miterlimit: 10;
        stroke-width: 1.43px;
      }
    </style>
    <clipPath id="clippath">
      <path id="SVGID" class="cls-2" d="m45.28,47.17l-5.02-24.19,51.67-11.22,3.68,78s-11.75,5.88-12.6,5.97-22.01,1.39-22.01,1.39l.98-15.43,11.76-26.75-9.39-16.93-11.08,4.11-6.14,3.69-1.87,1.39Z"/>
    </clipPath>
  </defs>
  <g id="_レイヤー_1-2" data-name="レイヤー 1">
    <g>
      <rect class="cls-1" width="150" height="150"/>
      <path class="cls-5" d="m90.57,38.76c-7.56-3.91-14.54-2.74-19.53-2.74s-17.01,4.43-25.4,10.83c-8.39,6.4-13.16,14.76-3.63,22.63.14.89.24,1.73.31,2.51.07.78.11,1.52.11,2.22-.74.31-2,.8-3.4,1.18s-2.94.65-4.23.52c0,0,.73.58,1.99,1.17,1.26.59,3.04,1.18,5.14,1.18-.34,1.19-.85,2.33-1.57,3.49-.72,1.17-1.64,2.36-2.79,3.68-1.24,1.42-1.18,2.52-.68,3.36s1.46,1.4,2.01,1.74c.55.33,1,1.16,1.16,2.05.17.89.06,1.83-.5,2.38-.55.55-.55,1-.31,1.39.25.39.75.72,1.19,1.05s.21.96-.02,1.58c-.23.62-.45,1.23.02,1.53,1.22.78,1.55,1.83,1.61,2.91s-.17,2.19-.06,3.07c.11.89.57,2.03,1.79,2.69,1.23.66,3.22.82,6.41-.25,5.1-1.72,8.72.03,11.26,2.86.21.23.4.48.59.73l42.91-59.75c-4.83-7.46-9.8-11.61-14.41-13.99Z"/>
      <path class="cls-4" d="m66,128.49c-.68,1.69-1.58,2.59-1.58,2.59,64.88-11.71,49.56-59.48,49.56-59.48-2.86-7.92-5.9-14.06-9-18.85l-42.91,59.75c2.17,2.75,3.46,6.24,4.15,8.66.9,3.15.45,5.63-.23,7.32Z"/>
      <g class="cls-3">
        <path class="cls-6" d="m50.03,30.06c-1.85,1-3.6,2.57-3.37,4.87l3.32,32.59c.23,2.27-.7,2.48-2.97,2.22-1.11-.14-2.6-.15-4.57.05-9.3.95-9.87,10.6-9.78,11.48s1.94,8.12,11.01,7.2c9.08-.92,13.08-7.65,12.65-11.85l-3.46-33.98s-.2-4.23,4.55-5.83l12.78-4.3s7.9-3.34,8.51,2.63l3.45,34.39c.23,2.27-.67,2.44-2.93,2.15-1.13-.14-2.62-.17-4.62.04-8.88.9-9.87,10.67-9.78,11.55s1.94,8.05,11.01,7.12c9.07-.92,13.09-7.56,12.66-11.77l-5.3-52.06s-.01-3.7-1.79-5.21h0c-1.74-1.47-4.98.01-7.15.72l-24.22,7.98Z"/>
      </g>
    </g>
  </g>
</svg>